<svg version="1.1" id="Layer_1" xmlns="http://www.w3.org/2000/svg" xmlns:xlink="http://www.w3.org/1999/xlink" x="0px" y="0px"
	 width="100%" viewBox="0 0 1200 1200" enable-background="new 0 0 1200 1200" xml:space="preserve">
<path fill="#013C4D" opacity="1.000000" stroke="none" 
	d="
M525.000000,1201.000000 
	C350.000000,1201.000000 175.500000,1201.000000 1.000000,1201.000000 
	C1.000000,801.000000 1.000000,401.000000 1.000000,1.000000 
	C401.000000,1.000000 801.000000,1.000000 1201.000000,1.000000 
	C1201.000000,401.000000 1201.000000,801.000000 1201.000000,1201.000000 
	C975.833313,1201.000000 750.666687,1201.000000 525.000000,1201.000000 
M641.384399,334.114166 
	C629.095276,327.006073 616.764587,319.968079 604.549927,312.734283 
	C601.919250,311.176331 599.995728,311.276855 597.382385,312.863403 
	C590.329224,317.145508 583.004456,320.976776 575.860413,325.112946 
	C534.128540,349.274445 492.431091,373.495483 450.667419,397.601837 
	C448.035034,399.121277 447.017456,400.777832 447.022614,403.859192 
	C447.117065,460.191223 447.114380,516.523499 447.032928,572.855530 
	C447.028259,576.074707 448.028137,577.829834 450.921509,579.475830 
	C471.584106,591.230469 492.100983,603.241028 512.682129,615.139160 
	C539.261108,630.504639 566.050537,645.520996 592.314270,661.406921 
	C599.206604,665.575867 603.806030,664.912903 610.344849,661.075500 
	C657.206604,633.574158 704.311951,606.487671 751.397339,579.368774 
	C754.098022,577.813293 754.965515,576.017090 754.961670,573.017517 
	C754.888916,516.685425 754.880493,460.353180 754.978333,404.021210 
	C754.984070,400.713623 753.788269,398.970917 750.996521,397.401611 
	C739.048889,390.685516 727.226440,383.746643 715.359497,376.887146 
	C690.912842,362.756195 666.466980,348.624023 641.384399,334.114166 
M271.793945,765.593750 
	C270.045135,765.079468 268.316315,764.210693 266.544159,764.110901 
	C257.919281,763.625671 249.285355,763.247681 240.649628,763.026245 
	C234.220810,762.861450 227.784378,762.993774 221.415344,762.993774 
	C221.415344,793.051453 221.415344,822.420349 221.415344,851.896729 
	C235.489487,851.896729 249.159592,852.290710 262.786835,851.698669 
	C268.079834,851.468750 273.706299,849.841492 278.425171,847.393860 
	C287.708588,842.578491 290.821838,833.962708 289.978302,823.857361 
	C289.224335,814.824646 283.756897,809.511841 275.631012,806.532104 
	C273.675415,805.815002 271.614197,805.385986 268.862671,804.618347 
	C278.610321,801.174927 284.843140,795.568848 284.819550,785.229858 
	C284.799072,776.257690 280.973297,769.568848 271.793945,765.593750 
M763.687561,849.096375 
	C763.687561,837.522339 763.687561,825.948364 763.687561,814.314209 
	C771.941895,814.314209 779.354004,814.314209 787.461914,814.314209 
	C787.461914,826.979309 787.461914,839.353333 787.461914,851.744385 
	C794.267578,851.744385 800.368347,851.744385 806.680359,851.744385 
	C806.680359,822.123108 806.680359,792.764343 806.680359,763.385376 
	C800.139648,763.385376 793.932800,763.385376 787.186768,763.385376 
	C787.186768,775.008911 787.186768,786.251526 787.186768,797.589172 
	C779.095276,797.589172 771.558960,797.589172 763.515015,797.589172 
	C763.515015,785.927734 763.515015,774.663635 763.515015,763.358521 
	C756.767578,763.358521 750.543884,763.358521 744.422485,763.358521 
	C744.422485,793.084961 744.422485,822.444702 744.422485,852.001770 
	C750.007019,852.001770 755.169739,852.117310 760.319519,851.911499 
	C761.450439,851.866333 762.535645,850.678711 763.687561,849.096375 
M972.072754,783.384460 
	C959.028137,775.500305 947.644470,778.032959 937.019897,790.129333 
	C937.019897,777.352295 937.019897,765.812317 937.019897,754.285339 
	C930.694946,754.285339 924.941956,754.285339 918.750244,754.285339 
	C918.750244,786.945679 918.750244,819.314819 918.750244,851.700684 
	C924.703857,851.700684 930.287720,851.700684 936.176147,851.700684 
	C936.576660,848.235474 936.946533,845.035522 937.381348,841.273499 
	C938.215515,842.165527 938.681274,842.576782 939.044373,843.064514 
	C949.045532,856.500488 966.786865,856.484253 976.544617,842.910217 
	C981.355896,836.217346 983.261169,828.395569 983.497070,820.358215 
	C983.886658,807.084534 983.242981,793.929993 972.072754,783.384460 
M684.951782,825.470947 
	C680.026062,811.711121 675.146057,797.934509 670.098755,784.219482 
	C669.631348,782.949463 668.148438,781.214294 667.056396,781.153809 
	C661.445862,780.843323 655.808960,781.010071 649.740967,781.010071 
	C650.213989,782.281372 650.464233,783.033142 650.768982,783.761963 
	C659.669861,805.047974 668.598450,826.322449 677.436218,847.634644 
	C678.087219,849.204529 678.670471,851.184082 678.297180,852.735413 
	C675.871643,862.814331 670.713257,866.616760 660.491699,866.279907 
	C659.344666,866.242126 658.195251,866.274902 656.671265,866.274902 
	C656.671265,870.417053 656.671265,874.495667 656.671265,878.554626 
	C675.181274,883.150879 685.307556,877.382751 691.748047,864.848389 
	C692.656738,863.079895 693.546082,861.290222 694.280579,859.445190 
	C701.280212,841.861816 708.243835,824.264221 715.219299,806.671204 
	C718.542908,798.288696 721.869873,789.907532 725.403870,781.000122 
	C719.279785,781.000122 713.952698,780.804810 708.659790,781.143127 
	C707.401733,781.223511 705.612610,782.867188 705.161926,784.170288 
	C700.927490,796.413086 696.891174,808.725159 692.885864,821.045898 
	C691.378967,825.680969 690.103394,830.391296 688.722351,835.067322 
	C688.403198,835.070129 688.084045,835.072998 687.764893,835.075867 
	C686.852173,832.141968 685.939514,829.208130 684.951782,825.470947 
M340.442139,853.005981 
	C349.302765,852.682190 357.637756,850.755676 364.013794,844.090271 
	C374.157288,833.486389 375.174011,820.449890 373.191833,806.851746 
	C370.632019,789.291199 361.586090,780.836792 343.982239,779.133240 
	C327.133667,777.502686 312.684875,784.497437 308.498566,797.774719 
	C306.163330,805.181213 304.943024,813.463074 305.541626,821.170166 
	C307.187988,842.367554 318.955200,852.821899 340.442139,853.005981 
M545.823486,820.500427 
	C545.782715,814.697205 546.303223,808.818726 545.537598,803.112793 
	C544.824402,797.797424 543.812561,791.997498 541.055603,787.582764 
	C533.767578,775.912292 514.085876,776.042786 505.189911,787.238159 
	C503.893219,788.869995 502.684784,790.572021 500.559509,793.412231 
	C500.309326,789.446533 500.412567,786.817993 499.872620,784.328979 
	C499.604248,783.091797 498.214172,781.227600 497.231323,781.162598 
	C492.312286,780.837158 487.360046,781.013611 482.579315,781.013611 
	C482.579315,804.979858 482.579315,828.341797 482.579315,851.746826 
	C488.924805,851.746826 494.694977,851.746826 500.778778,851.746826 
	C500.861725,849.886536 500.993866,848.266357 500.996552,846.645935 
	C501.015015,835.484619 500.863251,824.320435 501.092255,813.163818 
	C501.162476,809.742737 501.844971,806.202942 502.957642,802.961365 
	C505.450409,795.699158 511.439758,792.050110 518.323486,793.060364 
	C523.540100,793.825867 526.680664,797.910522 526.926636,805.942383 
	C527.334167,819.254395 527.202881,832.582886 527.294128,845.904480 
	C527.307312,847.832275 527.295959,849.760193 527.295959,851.617432 
	C533.844421,851.617432 539.576782,851.617432 545.135315,851.617432 
	C545.440247,850.931946 545.687561,850.633179 545.690552,850.332031 
	C545.785461,840.721680 545.856628,831.110962 545.823486,820.500427 
M830.993774,818.497864 
	C831.266357,824.141968 830.905457,829.904724 831.935425,835.407043 
	C834.556335,849.407471 846.527832,856.047913 860.099854,851.881287 
	C866.774475,849.832031 870.460938,844.689941 874.616333,838.541016 
	C875.121155,843.566711 875.526855,847.605835 875.948914,851.807861 
	C881.726929,851.807861 887.182312,851.807861 892.807068,851.807861 
	C892.807068,828.258423 892.807068,804.858948 892.807068,781.360474 
	C886.524292,781.360474 880.645691,781.360474 874.295349,781.360474 
	C874.295349,793.690247 874.485107,805.663208 874.193115,817.624329 
	C874.089905,821.854797 873.367798,826.256348 871.942810,830.226135 
	C869.595886,836.764282 864.737671,839.664490 859.054077,838.971558 
	C854.326111,838.395081 850.638306,833.992859 849.995239,827.293335 
	C849.475342,821.876282 849.486389,816.399292 849.442871,810.947449 
	C849.364258,801.087341 849.420654,791.226135 849.420654,781.304626 
	C842.933411,781.304626 837.182800,781.304626 830.993774,781.304626 
	C830.993774,793.573059 830.993774,805.535889 830.993774,818.497864 
M457.006287,832.492249 
	C457.006287,815.410767 457.006287,798.329285 457.006287,781.274292 
	C450.433563,781.274292 444.664764,781.274292 438.296021,781.274292 
	C438.296021,783.337891 438.296082,785.126465 438.296021,786.915039 
	C438.295532,797.414246 438.644562,807.930298 438.138733,818.405090 
	C437.905701,823.230286 436.604279,828.235962 434.683228,832.682922 
	C432.726440,837.212646 428.571960,839.602356 423.268219,838.973633 
	C418.170349,838.369507 416.000153,834.744934 414.676788,830.401611 
	C414.149719,828.671875 413.770966,826.826233 413.742554,825.026855 
	C413.573273,814.306091 413.518005,803.583496 413.442566,792.861328 
	C413.415314,788.988953 413.438171,785.116211 413.438171,781.406128 
	C406.681458,781.406128 400.948486,781.406128 394.995117,781.406128 
	C394.995117,797.306641 394.962555,812.796021 395.030334,828.285034 
	C395.040466,830.597839 395.361328,832.940430 395.813324,835.214539 
	C397.625519,844.332092 402.449036,850.885498 412.051727,852.548889 
	C421.485168,854.182983 429.515320,851.621399 435.194305,843.405823 
	C436.151581,842.020935 437.209229,840.705383 438.630707,838.811157 
	C439.150696,843.710144 439.578827,847.743652 439.999329,851.705566 
	C445.958740,851.705566 451.371704,851.705566 457.006287,851.705566 
	C457.006287,845.435364 457.006287,839.461487 457.006287,832.492249 
M577.406616,780.993652 
	C575.319824,780.993652 573.233032,780.993652 571.228271,780.993652 
	C571.228271,785.564148 571.228271,789.462769 571.228271,793.496948 
	C574.924133,793.671143 578.172424,793.824219 581.722656,793.991516 
	C581.722656,796.410889 581.714417,798.227783 581.723999,800.044617 
	C581.785828,811.756592 581.610901,823.476440 581.997314,835.177795 
	C582.272705,843.513672 586.964661,849.172424 595.046814,851.428101 
	C606.068542,854.504150 617.020752,852.860474 627.798218,850.758301 
	C627.798218,846.541138 627.798218,842.826599 627.798218,840.190918 
	C621.072998,840.190918 614.796204,840.289124 608.524170,840.159119 
	C603.686157,840.058899 600.306091,837.481445 600.192444,832.633484 
	C599.893188,819.864197 600.091248,807.083252 600.091248,793.677856 
	C608.600952,793.677856 616.653137,793.677856 624.904419,793.677856 
	C624.904419,789.135437 624.904419,785.229858 624.904419,780.808838 
	C616.506897,780.808838 608.426941,780.808838 599.926147,780.808838 
	C599.926147,774.371826 599.926147,768.440552 599.926147,762.598755 
	C588.784058,760.781555 588.773254,760.778137 585.626343,770.798523 
	C584.980347,772.855591 584.315491,774.921997 583.895264,777.031189 
	C583.261658,780.210938 581.506592,781.567810 577.406616,780.993652 
z"/>
<path fill="#9DD4CA" opacity="1.000000" stroke="none" 
	d="
M641.702576,334.303253 
	C666.466980,348.624023 690.912842,362.756195 715.359497,376.887146 
	C727.226440,383.746643 739.048889,390.685516 750.996521,397.401611 
	C753.788269,398.970917 754.984070,400.713623 754.978333,404.021210 
	C754.880493,460.353180 754.888916,516.685425 754.961670,573.017517 
	C754.965515,576.017090 754.098022,577.813293 751.397339,579.368774 
	C704.311951,606.487671 657.206604,633.574158 610.344849,661.075500 
	C603.806030,664.912903 599.206604,665.575867 592.314270,661.406921 
	C566.050537,645.520996 539.261108,630.504639 512.682129,615.139160 
	C492.100983,603.241028 471.584106,591.230469 450.921509,579.475830 
	C448.028137,577.829834 447.028259,576.074707 447.032928,572.855530 
	C447.114380,516.523499 447.117065,460.191223 447.022614,403.859192 
	C447.017456,400.777832 448.035034,399.121277 450.667419,397.601837 
	C492.431091,373.495483 534.128540,349.274445 575.860413,325.112946 
	C583.004456,320.976776 590.329224,317.145508 597.382385,312.863403 
	C599.995728,311.276855 601.919250,311.176331 604.549927,312.734283 
	C616.764587,319.968079 629.095276,327.006073 641.702576,334.303253 
M544.008606,549.421814 
	C548.127136,552.747375 552.163635,553.142944 556.706665,549.877319 
	C557.831116,549.069092 560.553589,549.537720 562.047241,550.339844 
	C573.318115,556.392273 584.569153,562.498413 595.597107,568.977905 
	C599.601318,571.330566 602.665222,571.151794 606.594055,568.847656 
	C617.342773,562.543701 628.384583,556.741760 639.228394,550.596497 
	C641.939087,549.060303 644.159790,548.455017 646.903076,550.619934 
	C649.783447,552.893127 652.685303,552.622009 656.049683,550.562256 
	C663.553955,545.968079 671.322205,541.776550 679.163147,537.773865 
	C682.811951,535.911194 684.094055,533.494873 683.900940,529.484131 
	C683.596680,523.167480 682.965271,516.678833 684.019531,510.528259 
	C685.622742,501.175323 682.526306,495.639252 673.564392,492.998840 
	C670.210388,492.010651 669.268555,489.548767 669.382812,486.073364 
	C669.634338,478.417419 669.278198,470.741394 669.533997,463.085754 
	C669.667725,459.082916 668.370605,456.691254 664.706055,454.827240 
	C657.160828,450.989227 650.150330,445.984070 642.390564,442.715515 
	C634.273010,439.296234 632.008789,434.098419 633.783691,426.001129 
	C634.055298,424.762299 632.804260,422.431885 631.606445,421.750153 
	C622.955444,416.826355 614.086548,412.287018 605.398254,407.426392 
	C602.288574,405.686676 599.611023,405.665070 596.548096,407.472656 
	C589.967529,411.356049 583.506287,415.598724 576.526428,418.602875 
	C569.915833,421.448090 567.434998,425.679352 568.538818,432.478241 
	C569.166443,436.343506 567.405273,438.403961 563.940491,440.187866 
	C554.641113,444.975952 545.624878,450.310547 536.414795,455.277191 
	C533.563171,456.814972 532.398376,458.855042 532.493591,462.075928 
	C532.665771,467.902283 531.957153,473.810638 532.677612,479.551575 
	C533.737732,487.999603 531.082275,493.497955 522.792053,496.189941 
	C519.205078,497.354675 517.981323,500.130890 518.098450,504.013580 
	C518.359741,512.669556 518.354614,521.344055 518.100891,530.000488 
	C517.986877,533.891174 519.410706,536.055542 522.835449,537.791809 
	C529.795349,541.320374 536.540771,545.271973 544.008606,549.421814 
z"/>
<path fill="#D2441D" opacity="1.000000" stroke="none" 
	d="
M272.133118,765.772888 
	C280.973297,769.568848 284.799072,776.257690 284.819550,785.229858 
	C284.843140,795.568848 278.610321,801.174927 268.862671,804.618347 
	C271.614197,805.385986 273.675415,805.815002 275.631012,806.532104 
	C283.756897,809.511841 289.224335,814.824646 289.978302,823.857361 
	C290.821838,833.962708 287.708588,842.578491 278.425171,847.393860 
	C273.706299,849.841492 268.079834,851.468750 262.786835,851.698669 
	C249.159592,852.290710 235.489487,851.896729 221.415344,851.896729 
	C221.415344,822.420349 221.415344,793.051453 221.415344,762.993774 
	C227.784378,762.993774 234.220810,762.861450 240.649628,763.026245 
	C249.285355,763.247681 257.919281,763.625671 266.544159,764.110901 
	C268.316315,764.210693 270.045135,765.079468 272.133118,765.772888 
M240.628799,831.721069 
	C240.628799,833.609924 240.628799,835.498840 240.628799,837.547607 
	C246.353409,837.547607 251.482773,837.564575 256.611908,837.534668 
	C257.770905,837.527893 258.934174,837.399719 260.086639,837.256409 
	C267.060760,836.389343 270.286163,832.599060 270.483002,825.072144 
	C270.663391,818.174194 267.475037,813.633362 260.696930,812.945801 
	C254.319473,812.298889 247.824814,812.807129 240.498703,812.807129 
	C240.498703,818.791016 240.498703,824.951965 240.628799,831.721069 
M240.666641,779.408630 
	C240.666641,785.536072 240.666641,791.663452 240.666641,798.263550 
	C247.102814,797.961853 252.737564,797.916321 258.321808,797.362061 
	C262.302704,796.966919 264.379669,794.103271 264.914307,790.283447 
	C265.480804,786.235657 265.795776,781.643311 261.611877,779.605591 
	C254.995026,776.382996 247.850006,776.391602 240.666641,779.408630 
z"/>
<path fill="#D2441D" opacity="1.000000" stroke="none" 
	d="
M763.664673,849.556763 
	C762.535645,850.678711 761.450439,851.866333 760.319519,851.911499 
	C755.169739,852.117310 750.007019,852.001770 744.422485,852.001770 
	C744.422485,822.444702 744.422485,793.084961 744.422485,763.358521 
	C750.543884,763.358521 756.767578,763.358521 763.515015,763.358521 
	C763.515015,774.663635 763.515015,785.927734 763.515015,797.589172 
	C771.558960,797.589172 779.095276,797.589172 787.186768,797.589172 
	C787.186768,786.251526 787.186768,775.008911 787.186768,763.385376 
	C793.932800,763.385376 800.139648,763.385376 806.680359,763.385376 
	C806.680359,792.764343 806.680359,822.123108 806.680359,851.744385 
	C800.368347,851.744385 794.267578,851.744385 787.461914,851.744385 
	C787.461914,839.353333 787.461914,826.979309 787.461914,814.314209 
	C779.354004,814.314209 771.941895,814.314209 763.687561,814.314209 
	C763.687561,825.948364 763.687561,837.522339 763.664673,849.556763 
z"/>
<path fill="#D2441D" opacity="1.000000" stroke="none" 
	d="
M972.341919,783.622253 
	C983.242981,793.929993 983.886658,807.084534 983.497070,820.358215 
	C983.261169,828.395569 981.355896,836.217346 976.544617,842.910217 
	C966.786865,856.484253 949.045532,856.500488 939.044373,843.064514 
	C938.681274,842.576782 938.215515,842.165527 937.381348,841.273499 
	C936.946533,845.035522 936.576660,848.235474 936.176147,851.700684 
	C930.287720,851.700684 924.703857,851.700684 918.750244,851.700684 
	C918.750244,819.314819 918.750244,786.945679 918.750244,754.285339 
	C924.941956,754.285339 930.694946,754.285339 937.019897,754.285339 
	C937.019897,765.812317 937.019897,777.352295 937.019897,790.129333 
	C947.644470,778.032959 959.028137,775.500305 972.341919,783.622253 
M943.410706,794.760193 
	C935.359680,801.236877 935.243958,824.490723 940.876099,833.838318 
	C943.526367,838.237000 947.203491,840.649475 952.350464,840.167969 
	C957.407043,839.694946 960.411072,836.403198 961.878418,831.837585 
	C965.273743,821.273254 965.391846,810.583496 961.832458,800.068115 
	C958.990784,791.672913 951.569275,789.413147 943.410706,794.760193 
z"/>
<path fill="#D2441D" opacity="1.000000" stroke="none" 
	d="
M684.989258,825.872620 
	C685.939514,829.208130 686.852173,832.141968 687.764893,835.075867 
	C688.084045,835.072998 688.403198,835.070129 688.722351,835.067322 
	C690.103394,830.391296 691.378967,825.680969 692.885864,821.045898 
	C696.891174,808.725159 700.927490,796.413086 705.161926,784.170288 
	C705.612610,782.867188 707.401733,781.223511 708.659790,781.143127 
	C713.952698,780.804810 719.279785,781.000122 725.403870,781.000122 
	C721.869873,789.907532 718.542908,798.288696 715.219299,806.671204 
	C708.243835,824.264221 701.280212,841.861816 694.280579,859.445190 
	C693.546082,861.290222 692.656738,863.079895 691.748047,864.848389 
	C685.307556,877.382751 675.181274,883.150879 656.671265,878.554626 
	C656.671265,874.495667 656.671265,870.417053 656.671265,866.274902 
	C658.195251,866.274902 659.344666,866.242126 660.491699,866.279907 
	C670.713257,866.616760 675.871643,862.814331 678.297180,852.735413 
	C678.670471,851.184082 678.087219,849.204529 677.436218,847.634644 
	C668.598450,826.322449 659.669861,805.047974 650.768982,783.761963 
	C650.464233,783.033142 650.213989,782.281372 649.740967,781.010071 
	C655.808960,781.010071 661.445862,780.843323 667.056396,781.153809 
	C668.148438,781.214294 669.631348,782.949463 670.098755,784.219482 
	C675.146057,797.934509 680.026062,811.711121 684.989258,825.872620 
z"/>
<path fill="#D2441D" opacity="1.000000" stroke="none" 
	d="
M339.970642,853.006104 
	C318.955200,852.821899 307.187988,842.367554 305.541626,821.170166 
	C304.943024,813.463074 306.163330,805.181213 308.498566,797.774719 
	C312.684875,784.497437 327.133667,777.502686 343.982239,779.133240 
	C361.586090,780.836792 370.632019,789.291199 373.191833,806.851746 
	C375.174011,820.449890 374.157288,833.486389 364.013794,844.090271 
	C357.637756,850.755676 349.302765,852.682190 339.970642,853.006104 
M349.142883,836.687134 
	C349.900208,835.609375 350.882111,834.625732 351.379486,833.439026 
	C355.594635,823.381897 355.321655,813.012451 353.021667,802.635437 
	C351.324493,794.978210 347.202118,791.809082 339.761261,791.746765 
	C332.696198,791.687622 327.184998,795.219238 326.238831,802.481201 
	C325.157990,810.776978 324.670319,819.455261 325.893066,827.674561 
	C327.738861,840.082092 337.727539,843.807861 349.142883,836.687134 
z"/>
<path fill="#D2441D" opacity="1.000000" stroke="none" 
	d="
M545.877441,821.000366 
	C545.856628,831.110962 545.785461,840.721680 545.690552,850.332031 
	C545.687561,850.633179 545.440247,850.931946 545.135315,851.617432 
	C539.576782,851.617432 533.844421,851.617432 527.295959,851.617432 
	C527.295959,849.760193 527.307312,847.832275 527.294128,845.904480 
	C527.202881,832.582886 527.334167,819.254395 526.926636,805.942383 
	C526.680664,797.910522 523.540100,793.825867 518.323486,793.060364 
	C511.439758,792.050110 505.450409,795.699158 502.957642,802.961365 
	C501.844971,806.202942 501.162476,809.742737 501.092255,813.163818 
	C500.863251,824.320435 501.015015,835.484619 500.996552,846.645935 
	C500.993866,848.266357 500.861725,849.886536 500.778778,851.746826 
	C494.694977,851.746826 488.924805,851.746826 482.579315,851.746826 
	C482.579315,828.341797 482.579315,804.979858 482.579315,781.013611 
	C487.360046,781.013611 492.312286,780.837158 497.231323,781.162598 
	C498.214172,781.227600 499.604248,783.091797 499.872620,784.328979 
	C500.412567,786.817993 500.309326,789.446533 500.559509,793.412231 
	C502.684784,790.572021 503.893219,788.869995 505.189911,787.238159 
	C514.085876,776.042786 533.767578,775.912292 541.055603,787.582764 
	C543.812561,791.997498 544.824402,797.797424 545.537598,803.112793 
	C546.303223,808.818726 545.782715,814.697205 545.877441,821.000366 
z"/>
<path fill="#D2441D" opacity="1.000000" stroke="none" 
	d="
M830.993774,817.998291 
	C830.993774,805.535889 830.993774,793.573059 830.993774,781.304626 
	C837.182800,781.304626 842.933411,781.304626 849.420654,781.304626 
	C849.420654,791.226135 849.364258,801.087341 849.442871,810.947449 
	C849.486389,816.399292 849.475342,821.876282 849.995239,827.293335 
	C850.638306,833.992859 854.326111,838.395081 859.054077,838.971558 
	C864.737671,839.664490 869.595886,836.764282 871.942810,830.226135 
	C873.367798,826.256348 874.089905,821.854797 874.193115,817.624329 
	C874.485107,805.663208 874.295349,793.690247 874.295349,781.360474 
	C880.645691,781.360474 886.524292,781.360474 892.807068,781.360474 
	C892.807068,804.858948 892.807068,828.258423 892.807068,851.807861 
	C887.182312,851.807861 881.726929,851.807861 875.948914,851.807861 
	C875.526855,847.605835 875.121155,843.566711 874.616333,838.541016 
	C870.460938,844.689941 866.774475,849.832031 860.099854,851.881287 
	C846.527832,856.047913 834.556335,849.407471 831.935425,835.407043 
	C830.905457,829.904724 831.266357,824.141968 830.993774,817.998291 
z"/>
<path fill="#D2441D" opacity="1.000000" stroke="none" 
	d="
M457.006287,832.989868 
	C457.006287,839.461487 457.006287,845.435364 457.006287,851.705566 
	C451.371704,851.705566 445.958740,851.705566 439.999329,851.705566 
	C439.578827,847.743652 439.150696,843.710144 438.630707,838.811157 
	C437.209229,840.705383 436.151581,842.020935 435.194305,843.405823 
	C429.515320,851.621399 421.485168,854.182983 412.051727,852.548889 
	C402.449036,850.885498 397.625519,844.332092 395.813324,835.214539 
	C395.361328,832.940430 395.040466,830.597839 395.030334,828.285034 
	C394.962555,812.796021 394.995117,797.306641 394.995117,781.406128 
	C400.948486,781.406128 406.681458,781.406128 413.438171,781.406128 
	C413.438171,785.116211 413.415314,788.988953 413.442566,792.861328 
	C413.518005,803.583496 413.573273,814.306091 413.742554,825.026855 
	C413.770966,826.826233 414.149719,828.671875 414.676788,830.401611 
	C416.000153,834.744934 418.170349,838.369507 423.268219,838.973633 
	C428.571960,839.602356 432.726440,837.212646 434.683228,832.682922 
	C436.604279,828.235962 437.905701,823.230286 438.138733,818.405090 
	C438.644562,807.930298 438.295532,797.414246 438.296021,786.915039 
	C438.296082,785.126465 438.296021,783.337891 438.296021,781.274292 
	C444.664764,781.274292 450.433563,781.274292 457.006287,781.274292 
	C457.006287,798.329285 457.006287,815.410767 457.006287,832.989868 
z"/>
<path fill="#D2441D" opacity="1.000000" stroke="none" 
	d="
M577.852600,780.993469 
	C581.506592,781.567810 583.261658,780.210938 583.895264,777.031189 
	C584.315491,774.921997 584.980347,772.855591 585.626343,770.798523 
	C588.773254,760.778137 588.784058,760.781555 599.926147,762.598755 
	C599.926147,768.440552 599.926147,774.371826 599.926147,780.808838 
	C608.426941,780.808838 616.506897,780.808838 624.904419,780.808838 
	C624.904419,785.229858 624.904419,789.135437 624.904419,793.677856 
	C616.653137,793.677856 608.600952,793.677856 600.091248,793.677856 
	C600.091248,807.083252 599.893188,819.864197 600.192444,832.633484 
	C600.306091,837.481445 603.686157,840.058899 608.524170,840.159119 
	C614.796204,840.289124 621.072998,840.190918 627.798218,840.190918 
	C627.798218,842.826599 627.798218,846.541138 627.798218,850.758301 
	C617.020752,852.860474 606.068542,854.504150 595.046814,851.428101 
	C586.964661,849.172424 582.272705,843.513672 581.997314,835.177795 
	C581.610901,823.476440 581.785828,811.756592 581.723999,800.044617 
	C581.714417,798.227783 581.722656,796.410889 581.722656,793.991516 
	C578.172424,793.824219 574.924133,793.671143 571.228271,793.496948 
	C571.228271,789.462769 571.228271,785.564148 571.228271,780.993652 
	C573.233032,780.993652 575.319824,780.993652 577.852600,780.993469 
z"/>
<path fill="#D4471F" opacity="1.000000" stroke="none" 
	d="
M543.691650,549.235474 
	C536.540771,545.271973 529.795349,541.320374 522.835449,537.791809 
	C519.410706,536.055542 517.986877,533.891174 518.100891,530.000488 
	C518.354614,521.344055 518.359741,512.669556 518.098450,504.013580 
	C517.981323,500.130890 519.205078,497.354675 522.792053,496.189941 
	C531.082275,493.497955 533.737732,487.999603 532.677612,479.551575 
	C531.957153,473.810638 532.665771,467.902283 532.493591,462.075928 
	C532.398376,458.855042 533.563171,456.814972 536.414795,455.277191 
	C545.624878,450.310547 554.641113,444.975952 563.940491,440.187866 
	C567.405273,438.403961 569.166443,436.343506 568.538818,432.478241 
	C567.434998,425.679352 569.915833,421.448090 576.526428,418.602875 
	C583.506287,415.598724 589.967529,411.356049 596.548096,407.472656 
	C599.611023,405.665070 602.288574,405.686676 605.398254,407.426392 
	C614.086548,412.287018 622.955444,416.826355 631.606445,421.750153 
	C632.804260,422.431885 634.055298,424.762299 633.783691,426.001129 
	C632.008789,434.098419 634.273010,439.296234 642.390564,442.715515 
	C650.150330,445.984070 657.160828,450.989227 664.706055,454.827240 
	C668.370605,456.691254 669.667725,459.082916 669.533997,463.085754 
	C669.278198,470.741394 669.634338,478.417419 669.382812,486.073364 
	C669.268555,489.548767 670.210388,492.010651 673.564392,492.998840 
	C682.526306,495.639252 685.622742,501.175323 684.019531,510.528259 
	C682.965271,516.678833 683.596680,523.167480 683.900940,529.484131 
	C684.094055,533.494873 682.811951,535.911194 679.163147,537.773865 
	C671.322205,541.776550 663.553955,545.968079 656.049683,550.562256 
	C652.685303,552.622009 649.783447,552.893127 646.903076,550.619934 
	C644.159790,548.455017 641.939087,549.060303 639.228394,550.596497 
	C628.384583,556.741760 617.342773,562.543701 606.594055,568.847656 
	C602.665222,571.151794 599.601318,571.330566 595.597107,568.977905 
	C584.569153,562.498413 573.318115,556.392273 562.047241,550.339844 
	C560.553589,549.537720 557.831116,549.069092 556.706665,549.877319 
	C552.163635,553.142944 548.127136,552.747375 543.691650,549.235474 
M577.802917,550.695862 
	C584.642578,554.451965 591.453918,558.261536 598.349121,561.912720 
	C599.532837,562.539551 601.438354,563.167236 602.394104,562.651794 
	C613.260803,556.790710 624.007568,550.707397 635.463318,544.305176 
	C630.557861,541.546753 626.209167,539.453796 622.298889,536.731140 
	C620.707825,535.623291 619.206482,533.176208 619.143250,531.288818 
	C618.825806,521.808289 618.771851,512.301819 619.171570,502.827576 
	C619.260376,500.721344 621.080322,497.981110 622.918152,496.787994 
	C628.475403,493.180176 634.628113,490.489349 640.184875,486.880798 
	C646.947632,482.489075 653.441223,479.312592 660.669678,485.741821 
	C660.831848,485.886047 661.287109,485.700684 662.140503,485.615967 
	C662.140503,478.240265 662.170776,470.811005 662.091431,463.382965 
	C662.083984,462.681488 661.569275,461.669647 660.985413,461.337433 
	C652.128357,456.298096 643.220398,451.348267 633.443604,445.885376 
	C633.443604,448.835266 633.235107,450.650482 633.482849,452.401123 
	C634.212341,457.556824 632.171265,460.638275 627.438843,462.963013 
	C619.399780,466.912170 611.756836,471.662231 603.774536,475.737091 
	C602.222595,476.529388 599.553833,476.428009 597.961548,475.625305 
	C590.702148,471.965546 583.805725,467.563263 576.460999,464.102173 
	C570.446533,461.267914 567.235413,457.489258 568.506714,450.620422 
	C568.727905,449.425293 568.309448,448.111786 568.117920,446.152802 
	C558.754944,451.335938 549.926086,456.196442 541.145569,461.142792 
	C540.537109,461.485535 539.935181,462.463409 539.927246,463.152771 
	C539.840576,470.689270 539.872986,478.227142 539.872986,486.502655 
	C541.922119,485.390442 543.143433,484.901855 544.164246,484.143433 
	C548.647766,480.812469 552.696960,481.525360 557.374268,484.320526 
	C565.173218,488.981232 573.440857,492.852448 581.406128,497.246460 
	C582.497131,497.848297 583.654602,499.548218 583.646790,500.732269 
	C583.578735,511.016479 583.415222,521.307983 582.850891,531.573730 
	C582.748718,533.432373 581.078674,535.755188 579.451599,536.870300 
	C575.531616,539.556702 571.208374,541.654602 566.513367,544.289795 
	C570.549072,546.557495 573.868896,548.422974 577.802917,550.695862 
M585.119568,436.404419 
	C582.248047,434.902130 579.376465,433.399811 575.825989,431.542297 
	C575.825989,439.329468 575.801147,446.283508 575.861267,453.236816 
	C575.867859,453.998077 576.135925,455.149231 576.665710,455.454346 
	C583.315918,459.284149 590.036743,462.991333 597.578308,467.197784 
	C597.578308,462.575592 597.067322,459.172729 597.672607,455.981567 
	C599.612366,445.753876 595.348328,439.695801 585.119568,436.404419 
M604.442322,464.359924 
	C604.790833,467.673553 606.597229,465.942902 607.886414,465.260315 
	C613.019958,462.542236 618.145508,459.802795 623.176819,456.902649 
	C624.359924,456.220673 625.973816,454.908844 626.011169,453.838623 
	C626.262512,446.643646 626.142029,439.435638 626.142029,431.468170 
	C618.967896,435.306152 612.634705,438.512024 606.536255,442.115204 
	C605.360657,442.809814 604.583496,445.039398 604.518250,446.598389 
	C604.281555,452.246582 604.426147,457.910736 604.442322,464.359924 
M642.652771,539.933472 
	C644.205078,540.669556 645.757324,541.405579 647.819275,542.383301 
	C647.819275,534.644470 647.853760,527.722961 647.776245,520.802673 
	C647.766418,519.927429 647.424744,518.605530 646.805420,518.256836 
	C640.261292,514.572571 633.629578,511.043915 626.131592,506.991028 
	C626.131592,510.274292 626.119995,512.362976 626.133789,514.451599 
	C626.168640,519.735657 624.470947,526.008972 626.748901,530.024414 
	C629.009888,534.009949 635.273926,535.728149 639.790649,538.426880 
	C640.499451,538.850403 641.252197,539.200256 642.652771,539.933472 
M563.256592,537.749023 
	C566.723999,535.818848 570.226685,533.947998 573.635010,531.918579 
	C574.528870,531.386353 575.749390,530.376953 575.768494,529.562195 
	C575.936035,522.401245 575.865540,515.234680 575.865540,506.959381 
	C568.335510,511.037445 561.830200,514.525391 555.380005,518.112671 
	C554.790039,518.440796 554.213013,519.400391 554.205139,520.073425 
	C554.120911,527.274658 554.152771,534.477173 554.152771,542.596252 
	C557.485962,540.847656 560.058472,539.498108 563.256592,537.749023 
M662.251282,514.819031 
	C659.840698,516.617432 655.602356,518.193237 655.351257,520.254639 
	C654.487915,527.342651 655.019470,534.600647 655.019470,542.605896 
	C662.124268,538.729614 668.353149,535.371033 674.526794,531.913757 
	C675.318848,531.470215 676.364441,530.523987 676.378113,529.793457 
	C676.515503,522.449890 676.461731,515.102783 676.461731,507.072968 
	C671.306519,509.856445 667.089783,512.133179 662.251282,514.819031 
M545.210999,541.678711 
	C545.801086,541.204346 546.896057,540.739258 546.904968,540.254272 
	C547.024231,533.785156 547.052246,527.312195 546.931274,520.843384 
	C546.913086,519.868591 546.278259,518.460510 545.495178,518.015137 
	C539.120789,514.389893 532.643127,510.946106 525.421753,507.026337 
	C525.421753,513.200012 525.774719,518.342468 525.324219,523.413574 
	C524.857239,528.671021 526.186401,532.089600 531.442871,534.192078 
	C536.013489,536.020264 540.175842,538.869202 545.210999,541.678711 
M606.150452,416.259613 
	C604.037231,415.536804 601.360229,413.613647 599.907166,414.296204 
	C593.144043,417.473267 586.719604,421.371155 579.679932,425.285889 
	C586.267212,428.870209 591.993286,432.203461 597.940552,435.079315 
	C599.565796,435.865295 602.186890,435.966309 603.781189,435.198486 
	C609.873901,432.264313 615.734131,428.847626 622.297180,425.275879 
	C616.831787,422.237396 611.811340,419.446289 606.150452,416.259613 
M669.978088,499.382294 
	C664.636047,496.389984 659.321960,493.345764 653.927917,490.450317 
	C652.880859,489.888306 651.208618,489.306854 650.357361,489.752228 
	C643.850220,493.156738 637.475037,496.813477 630.194336,500.873871 
	C637.454712,504.859314 643.771484,508.383575 650.167236,511.758118 
	C650.881714,512.135071 652.196655,511.948578 652.976013,511.536774 
	C658.973450,508.367401 664.917603,505.095856 670.820679,501.754303 
	C671.038147,501.631195 670.661804,500.459106 669.978088,499.382294 
M541.781677,507.709015 
	C545.061157,509.104340 549.033020,512.415955 551.487793,511.528900 
	C558.339050,509.053345 564.561890,504.838470 571.844177,500.867828 
	C564.564514,496.817596 558.257202,493.277435 551.903320,489.823059 
	C551.295471,489.492615 550.232666,489.391449 549.658264,489.699951 
	C543.089172,493.227875 536.574036,496.856049 529.256836,500.891876 
	C533.914551,503.408783 537.532593,505.363861 541.781677,507.709015 
z"/>
<path fill="#013C4D" opacity="1.000000" stroke="none" 
	d="
M240.563751,831.416992 
	C240.498703,824.951965 240.498703,818.791016 240.498703,812.807129 
	C247.824814,812.807129 254.319473,812.298889 260.696930,812.945801 
	C267.475037,813.633362 270.663391,818.174194 270.483002,825.072144 
	C270.286163,832.599060 267.060760,836.389343 260.086639,837.256409 
	C258.934174,837.399719 257.770905,837.527893 256.611908,837.534668 
	C251.482773,837.564575 246.353409,837.547607 240.628799,837.547607 
	C240.628799,835.498840 240.628799,833.609924 240.563751,831.416992 
z"/>
<path fill="#013C4D" opacity="1.000000" stroke="none" 
	d="
M240.729065,779.045532 
	C247.850006,776.391602 254.995026,776.382996 261.611877,779.605591 
	C265.795776,781.643311 265.480804,786.235657 264.914307,790.283447 
	C264.379669,794.103271 262.302704,796.966919 258.321808,797.362061 
	C252.737564,797.916321 247.102814,797.961853 240.666641,798.263550 
	C240.666641,791.663452 240.666641,785.536072 240.729065,779.045532 
z"/>
<path fill="#013C4D" opacity="1.000000" stroke="none" 
	d="
M943.682861,794.487732 
	C951.569275,789.413147 958.990784,791.672913 961.832458,800.068115 
	C965.391846,810.583496 965.273743,821.273254 961.878418,831.837585 
	C960.411072,836.403198 957.407043,839.694946 952.350464,840.167969 
	C947.203491,840.649475 943.526367,838.237000 940.876099,833.838318 
	C935.243958,824.490723 935.359680,801.236877 943.682861,794.487732 
z"/>
<path fill="#013C4D" opacity="1.000000" stroke="none" 
	d="
M348.865234,836.948364 
	C337.727539,843.807861 327.738861,840.082092 325.893066,827.674561 
	C324.670319,819.455261 325.157990,810.776978 326.238831,802.481201 
	C327.184998,795.219238 332.696198,791.687622 339.761261,791.746765 
	C347.202118,791.809082 351.324493,794.978210 353.021667,802.635437 
	C355.321655,813.012451 355.594635,823.381897 351.379486,833.439026 
	C350.882111,834.625732 349.900208,835.609375 348.865234,836.948364 
z"/>
<path fill="#9DD3C9" opacity="1.000000" stroke="none" 
	d="
M577.495850,550.492126 
	C573.868896,548.422974 570.549072,546.557495 566.513367,544.289795 
	C571.208374,541.654602 575.531616,539.556702 579.451599,536.870300 
	C581.078674,535.755188 582.748718,533.432373 582.850891,531.573730 
	C583.415222,521.307983 583.578735,511.016479 583.646790,500.732269 
	C583.654602,499.548218 582.497131,497.848297 581.406128,497.246460 
	C573.440857,492.852448 565.173218,488.981232 557.374268,484.320526 
	C552.696960,481.525360 548.647766,480.812469 544.164246,484.143433 
	C543.143433,484.901855 541.922119,485.390442 539.872986,486.502655 
	C539.872986,478.227142 539.840576,470.689270 539.927246,463.152771 
	C539.935181,462.463409 540.537109,461.485535 541.145569,461.142792 
	C549.926086,456.196442 558.754944,451.335938 568.117920,446.152802 
	C568.309448,448.111786 568.727905,449.425293 568.506714,450.620422 
	C567.235413,457.489258 570.446533,461.267914 576.460999,464.102173 
	C583.805725,467.563263 590.702148,471.965546 597.961548,475.625305 
	C599.553833,476.428009 602.222595,476.529388 603.774536,475.737091 
	C611.756836,471.662231 619.399780,466.912170 627.438843,462.963013 
	C632.171265,460.638275 634.212341,457.556824 633.482849,452.401123 
	C633.235107,450.650482 633.443604,448.835266 633.443604,445.885376 
	C643.220398,451.348267 652.128357,456.298096 660.985413,461.337433 
	C661.569275,461.669647 662.083984,462.681488 662.091431,463.382965 
	C662.170776,470.811005 662.140503,478.240265 662.140503,485.615967 
	C661.287109,485.700684 660.831848,485.886047 660.669678,485.741821 
	C653.441223,479.312592 646.947632,482.489075 640.184875,486.880798 
	C634.628113,490.489349 628.475403,493.180176 622.918152,496.787994 
	C621.080322,497.981110 619.260376,500.721344 619.171570,502.827576 
	C618.771851,512.301819 618.825806,521.808289 619.143250,531.288818 
	C619.206482,533.176208 620.707825,535.623291 622.298889,536.731140 
	C626.209167,539.453796 630.557861,541.546753 635.463318,544.305176 
	C624.007568,550.707397 613.260803,556.790710 602.394104,562.651794 
	C601.438354,563.167236 599.532837,562.539551 598.349121,561.912720 
	C591.453918,558.261536 584.642578,554.451965 577.495850,550.492126 
z"/>
<path fill="#9ED0C5" opacity="1.000000" stroke="none" 
	d="
M585.428955,436.609314 
	C595.348328,439.695801 599.612366,445.753876 597.672607,455.981567 
	C597.067322,459.172729 597.578308,462.575592 597.578308,467.197784 
	C590.036743,462.991333 583.315918,459.284149 576.665710,455.454346 
	C576.135925,455.149231 575.867859,453.998077 575.861267,453.236816 
	C575.801147,446.283508 575.825989,439.329468 575.825989,431.542297 
	C579.376465,433.399811 582.248047,434.902130 585.428955,436.609314 
z"/>
<path fill="#9ED0C5" opacity="1.000000" stroke="none" 
	d="
M604.434570,463.964417 
	C604.426147,457.910736 604.281555,452.246582 604.518250,446.598389 
	C604.583496,445.039398 605.360657,442.809814 606.536255,442.115204 
	C612.634705,438.512024 618.967896,435.306152 626.142029,431.468170 
	C626.142029,439.435638 626.262512,446.643646 626.011169,453.838623 
	C625.973816,454.908844 624.359924,456.220673 623.176819,456.902649 
	C618.145508,459.802795 613.019958,462.542236 607.886414,465.260315 
	C606.597229,465.942902 604.790833,467.673553 604.434570,463.964417 
z"/>
<path fill="#9ED0C5" opacity="1.000000" stroke="none" 
	d="
M642.318665,539.758789 
	C641.252197,539.200256 640.499451,538.850403 639.790649,538.426880 
	C635.273926,535.728149 629.009888,534.009949 626.748901,530.024414 
	C624.470947,526.008972 626.168640,519.735657 626.133789,514.451599 
	C626.119995,512.362976 626.131592,510.274292 626.131592,506.991028 
	C633.629578,511.043915 640.261292,514.572571 646.805420,518.256836 
	C647.424744,518.605530 647.766418,519.927429 647.776245,520.802673 
	C647.853760,527.722961 647.819275,534.644470 647.819275,542.383301 
	C645.757324,541.405579 644.205078,540.669556 642.318665,539.758789 
z"/>
<path fill="#9ED0C5" opacity="1.000000" stroke="none" 
	d="
M562.943787,537.948792 
	C560.058472,539.498108 557.485962,540.847656 554.152771,542.596252 
	C554.152771,534.477173 554.120911,527.274658 554.205139,520.073425 
	C554.213013,519.400391 554.790039,518.440796 555.380005,518.112671 
	C561.830200,514.525391 568.335510,511.037445 575.865540,506.959381 
	C575.865540,515.234680 575.936035,522.401245 575.768494,529.562195 
	C575.749390,530.376953 574.528870,531.386353 573.635010,531.918579 
	C570.226685,533.947998 566.723999,535.818848 562.943787,537.948792 
z"/>
<path fill="#9ED0C5" opacity="1.000000" stroke="none" 
	d="
M662.562134,514.614441 
	C667.089783,512.133179 671.306519,509.856445 676.461731,507.072968 
	C676.461731,515.102783 676.515503,522.449890 676.378113,529.793457 
	C676.364441,530.523987 675.318848,531.470215 674.526794,531.913757 
	C668.353149,535.371033 662.124268,538.729614 655.019470,542.605896 
	C655.019470,534.600647 654.487915,527.342651 655.351257,520.254639 
	C655.602356,518.193237 659.840698,516.617432 662.562134,514.614441 
z"/>
<path fill="#9ED0C5" opacity="1.000000" stroke="none" 
	d="
M544.864807,541.472900 
	C540.175842,538.869202 536.013489,536.020264 531.442871,534.192078 
	C526.186401,532.089600 524.857239,528.671021 525.324219,523.413574 
	C525.774719,518.342468 525.421753,513.200012 525.421753,507.026337 
	C532.643127,510.946106 539.120789,514.389893 545.495178,518.015137 
	C546.278259,518.460510 546.913086,519.868591 546.931274,520.843384 
	C547.052246,527.312195 547.024231,533.785156 546.904968,540.254272 
	C546.896057,540.739258 545.801086,541.204346 544.864807,541.472900 
z"/>
<path fill="#9ED0C5" opacity="1.000000" stroke="none" 
	d="
M606.470703,416.457397 
	C611.811340,419.446289 616.831787,422.237396 622.297180,425.275879 
	C615.734131,428.847626 609.873901,432.264313 603.781189,435.198486 
	C602.186890,435.966309 599.565796,435.865295 597.940552,435.079315 
	C591.993286,432.203461 586.267212,428.870209 579.679932,425.285889 
	C586.719604,421.371155 593.144043,417.473267 599.907166,414.296204 
	C601.360229,413.613647 604.037231,415.536804 606.470703,416.457397 
z"/>
<path fill="#9ED0C5" opacity="1.000000" stroke="none" 
	d="
M670.270142,499.579071 
	C670.661804,500.459106 671.038147,501.631195 670.820679,501.754303 
	C664.917603,505.095856 658.973450,508.367401 652.976013,511.536774 
	C652.196655,511.948578 650.881714,512.135071 650.167236,511.758118 
	C643.771484,508.383575 637.454712,504.859314 630.194336,500.873871 
	C637.475037,496.813477 643.850220,493.156738 650.357361,489.752228 
	C651.208618,489.306854 652.880859,489.888306 653.927917,490.450317 
	C659.321960,493.345764 664.636047,496.389984 670.270142,499.579071 
z"/>
<path fill="#9ED0C5" opacity="1.000000" stroke="none" 
	d="
M541.466187,507.513977 
	C537.532593,505.363861 533.914551,503.408783 529.256836,500.891876 
	C536.574036,496.856049 543.089172,493.227875 549.658264,489.699951 
	C550.232666,489.391449 551.295471,489.492615 551.903320,489.823059 
	C558.257202,493.277435 564.564514,496.817596 571.844177,500.867828 
	C564.561890,504.838470 558.339050,509.053345 551.487793,511.528900 
	C549.033020,512.415955 545.061157,509.104340 541.466187,507.513977 
z"/>
</svg>