<svg xmlns="http://www.w3.org/2000/svg" xmlns:lucid="lucid" width="1418.92" height="761.75"><g lucid:page-tab-id="0_0" stroke="#fc9432"><path d="M450.2 377c0 44.18-35.8 80-80 80-44.17 0-80-35.82-80-80 0-44.2 35.83-80 80-80 44.2 0 80 35.8 80 80zM185 380.88c0 44.18-35.82 80-80 80s-80-35.82-80-80c0-44.2 35.82-80 80-80s80 35.8 80 80z" stroke-width="10" fill="#fff"/><path d="M191.5 380.88l82.74.14" stroke-width="3" stroke-linejoin="round" fill="none"/><path d="M191.54 379.38v3h-1.58l.04-1.44v-.85l-.03-.72z" stroke-width=".05" fill="#fc9432"/><path d="M282.4 381.04l-12.93 7.6.03-15.26z" stroke-width="3" fill="#fc9432"/><path d="M185 656.75c0 44.2-35.82 80-80 80s-80-35.8-80-80c0-44.18 35.82-80 80-80s80 35.82 80 80z" stroke-width="10" fill="#fff"/><path d="M191.5 656.66l.5-.07.5-.1.5-.13.5-.14.5-.16.5-.2.54-.2.53-.26.55-.28.56-.33.6-.38.6-.42.63-.48.68-.56.7-.63.74-.73.8-.84.85-1 .9-1.14 1-1.38 1.1-1.64 1.2-2 1.35-2.45 1.52-3.07 1.75-3.93 2.03-5.17 2.44-7.05 3.04-10.1 4.03-15.77 6.3-30.16 23.66-128.2 4-15.78 3.04-10.1 2.44-7.05 2.04-5.17 1.75-3.93 1.52-3.07 1.34-2.46 1.2-2 1.1-1.64 1-1.37.9-1.16.86-.98.8-.85.72-.72" stroke-width="3" stroke-linejoin="round" fill="none"/><path d="M191.57 658.22l-1.6.03.03-1.43v-.85l-.03-.72 1.54-.03z" stroke-width=".05" fill="#fc9432"/><path d="M282.67 378.48l-7.3 13.1-7.7-13.2z" stroke-width="3" fill="#fc9432"/><path d="M185 105c0 44.18-35.82 80-80 80s-80-35.82-80-80 35.82-80 80-80 80 35.82 80 80z" stroke-width="10" fill="#fff"/><path d="M191.5 105.1h.05l.5.07.5.1.52.12.52.13.5.17.53.2.54.22.55.26.56.3.58.33.6.4.62.42.65.5.68.56.72.64.76.75.8.86.88 1 .93 1.18 1 1.4 1.12 1.7 1.23 2.02 1.37 2.5 1.55 3.13 1.77 4 2.08 5.26 2.5 7.18 3.1 10.33 4.13 16.26 6.77 32.4 21.74 115.48L256 331.2l3.1 10.3 2.5 7.2 2.07 5.25 1.78 4 1.55 3.13 1.37 2.5 1.22 2.03 1.1 1.68 1.02 1.4.94 1.18.86 1 .8.87.77.74.18.17" stroke-width="3" stroke-linejoin="round" fill="none"/><path d="M191.57 103.53l-.06 3-1.54-.03.04-1.43v-.86l-.03-.7z" stroke-width=".05" fill="#fc9432"/><path d="M282.65 375.54l-15 .23 7.57-13.26z" stroke-width="3" fill="#fc9432"/><path d="M456.72 376.96l1.1-.02 2.48-.16 2.4-.25 2.35-.34 2.3-.45 2.22-.52 2.2-.62 2.18-.7 2.15-.8 2.15-.9 2.16-1.02 2.17-1.13 2.2-1.26 2.22-1.43 2.26-1.58 2.34-1.78 2.4-2 2.53-2.27 2.65-2.6 2.8-3 3.04-3.5 3.32-4.2 3.74-5.15 4.4-6.62 5.62-9.33 10.8-19.86 17.63-32.98 5.63-9.33 4.4-6.63 3.72-5.15 3.32-4.2 3.03-3.5 2.82-3 2.64-2.6 2.5-2.27 2.43-2 2.33-1.77 2.28-1.58 2.22-1.42 2.2-1.26 2.16-1.13 2.15-1.03 2.15-.9 2.16-.8 2.17-.7 2.2-.62 2.24-.53 1.07-.2" stroke-width="3" stroke-linejoin="round" fill="none"/><path d="M456.8 378.46l-1.63.04.04-1.44v-.85l-.02-.7 1.54-.04z" stroke-width=".05" fill="#fc9432"/><path d="M614.5 221.25l-11.85 9.22-1.94-15.15z" stroke-width="3" fill="#fc9432"/><path d="M782.4 220.88c0 44.18-35.8 80-80 80-44.17 0-80-35.82-80-80 0-44.2 35.83-80 80-80 44.2 0 80 35.8 80 80zM782.4 540.88c0 44.18-35.8 80-80 80-44.17 0-80-35.82-80-80 0-44.2 35.83-80 80-80 44.2 0 80 35.8 80 80z" stroke-width="10" fill="#fff"/><path d="M456.72 377.03l1.6.03 2.92.18 2.78.3 2.64.4 2.54.47 2.44.58 2.35.66 2.28.74 2.24.83 2.18.93 2.15 1 2.13 1.12 2.1 1.22 2.1 1.33 2.1 1.46 2.1 1.6 2.14 1.77 2.17 1.95 2.2 2.17 2.28 2.42 2.36 2.74 2.46 3.12 2.6 3.58 2.8 4.2 3.05 5.06 3.46 6.3 4.18 8.43 6 13.56 20.17 48.46 4.1 8.3 3.4 6.18 3 4.94 2.7 4.1 2.55 3.5 2.4 3.02 2.28 2.65 2.2 2.36 2.15 2.1 2.1 1.9 2.05 1.7 2.03 1.54 2.03 1.4 2.02 1.28 2.02 1.17 2.04 1.06 2.07.98 2.1.88 2.12.8 2.18.7 2.25.63 2.32.54 2.42.46 2.5.37.25.03" stroke-width="3" stroke-linejoin="round" fill="none"/><path d="M456.8 375.53l-.08 3-1.55-.04.04-1.44v-.85l-.02-.7z" stroke-width=".05" fill="#fc9432"/><path d="M614.67 546.42l-13.4 6.73 1.05-15.24z" stroke-width="3" fill="#fc9432"/><path d="M788.9 540.88h115.16" stroke-width="3" stroke-linejoin="round" fill="none"/><path d="M788.95 542.38h-1.58l.04-1.44v-.85l-.02-.72h1.57z" stroke-width=".05" fill="#fc9432"/><path d="M912.22 540.88l-12.9 7.63v-15.26z" stroke-width="3" fill="#fc9432"/><path d="M1080.17 540.88c0 44.18-35.82 80-80 80-44.2 0-80-35.82-80-80 0-44.2 35.8-80 80-80 44.18 0 80 35.8 80 80z" stroke-width="10" fill="#fff"/><path d="M788.9 220.88h115.16" stroke-width="3" stroke-linejoin="round" fill="none"/><path d="M788.95 222.38h-1.58l.04-1.44v-.85l-.02-.72h1.57z" stroke-width=".05" fill="#fc9432"/><path d="M912.22 220.88l-12.9 7.63v-15.26z" stroke-width="3" fill="#fc9432"/><path d="M1080.17 220.88c0 44.18-35.82 80-80 80-44.2 0-80-35.82-80-80 0-44.2 35.8-80 80-80 44.18 0 80 35.8 80 80z" stroke-width="10" fill="#fff"/><path d="M1086.67 220.9l.5.02 1.92.12 1.86.2 1.83.27 1.78.35 1.76.4 1.74.5 1.73.56 1.73.65 1.72.72 1.73.8 1.74.93 1.77 1.02 1.8 1.14 1.83 1.28 1.9 1.43 1.95 1.62 2.03 1.83 2.15 2.1 2.26 2.4 2.4 2.8 2.62 3.28 2.85 3.95 3.2 4.83 3.74 6.17 4.65 8.46 6.93 14.06 23.46 50.28 4.64 8.46 3.73 6.17 3.2 4.84 2.87 3.94 2.6 3.3 2.4 2.78 2.27 2.4 2.14 2.1 2.03 1.84 1.97 1.62 1.9 1.44 1.83 1.27 1.8 1.14 1.77 1.02 1.74.9 1.74.82 1.72.73 1.72.64 1.73.57 1.75.5.17.03" stroke-width="3" stroke-linejoin="round" fill="none"/><path d="M1086.74 219.4l-.06 3-1.56-.02.05-1.44v-.85l-.03-.72z" stroke-width=".05" fill="#fc9432"/><path d="M1226 380.4l-13.98 5.4 2.52-15.07z" stroke-width="3" fill="#fc9432"/><path d="M1393.92 380.88c0 44.18-35.82 80-80 80s-80-35.82-80-80c0-44.2 35.82-80 80-80s80 35.8 80 80z" stroke-width="10" fill="#fff"/><path d="M1086.67 540.85l.5-.02 1.92-.12 1.86-.18 1.83-.27 1.78-.34 1.76-.4 1.74-.5 1.73-.56 1.73-.63 1.72-.72 1.73-.8 1.74-.92 1.77-1.02 1.8-1.15 1.83-1.28 1.9-1.44 1.95-1.62 2.03-1.84 2.15-2.1 2.26-2.4 2.4-2.8 2.62-3.28 2.85-3.93 3.2-4.83 3.74-6.17 4.65-8.46 6.93-14.05 23.46-50.3 4.64-8.45 3.73-6.17 3.2-4.83 2.87-3.94 2.6-3.28 2.4-2.8 2.27-2.4 2.14-2.1 2.03-1.83 1.97-1.63 1.9-1.43 1.83-1.28 1.8-1.14 1.77-1.02 1.74-.92 1.74-.8 1.72-.73 1.72-.64 1.73-.55 1.75-.5.17-.03" stroke-width="3" stroke-linejoin="round" fill="none"/><path d="M1086.74 542.34l-1.62.04.05-1.44v-.85l-.03-.72 1.54-.04z" stroke-width=".05" fill="#fc9432"/><path d="M1226 381.36l-11.46 9.66-2.52-15.06z" stroke-width="3" fill="#fc9432"/></g></svg>